<svg width="82" height="44" viewBox="0 0 82 44" fill="none" xmlns="http://www.w3.org/2000/svg">
<path d="M13.2808 8.35646C13.2808 13.0674 10.0651 15.9455 4.95216 15.9455H0V0.751366H4.95216C10.1133 0.751366 13.2808 3.61333 13.2808 8.35646ZM9.22902 8.35646C9.22902 5.97686 7.62118 4.51372 4.85569 4.51372H3.92314V12.1349H4.82353C7.58902 12.1349 9.22902 10.7039 9.22902 8.35646Z" fill="#2A3798"/>
<path d="M67.8349 9.8196V15.9455H64.0243V9.8196C64.0243 8.32431 63.4616 7.68117 62.4165 7.68117C61.3714 7.68117 60.5514 8.56549 60.5514 9.8196V15.9455H56.7408V9.8196C56.7408 8.32431 56.162 7.68117 55.1329 7.68117C54.1039 7.68117 53.2678 8.56549 53.2678 9.8196V15.9455H49.4251V4.69058H52.9623L53.0588 5.5749C53.5083 5.14738 54.0382 4.8135 54.6179 4.59268C55.1975 4.37186 55.8153 4.2685 56.4353 4.28862C57.124 4.23955 57.8118 4.39495 58.4125 4.73534C59.0132 5.07573 59.5 5.58594 59.8118 6.20196C60.259 5.58614 60.8506 5.0896 61.5347 4.75598C62.2188 4.42236 62.9743 4.26187 63.7349 4.28862C65.9216 4.24039 67.8349 5.31764 67.8349 9.8196Z" fill="#2A3798"/>
<path d="M46.9812 9.8196V15.9455H43.1706V9.8196C43.1706 8.32431 42.6239 7.68117 41.5627 7.68117C40.5016 7.68117 39.6976 8.56548 39.6976 9.8196V15.9455H35.8871V9.8196C35.8871 8.32431 35.3243 7.68117 34.2792 7.68117C33.2341 7.68117 32.4141 8.56548 32.4141 9.8196V15.9455H28.5874V4.69058H32.1569L32.2855 5.59097C32.736 5.16492 33.2661 4.83199 33.8455 4.61126C34.4249 4.39054 35.0422 4.28636 35.662 4.3047C36.351 4.25347 37.0397 4.40797 37.6408 4.74859C38.2419 5.08922 38.7283 5.60064 39.0384 6.21803C39.4857 5.60221 40.0773 5.10567 40.7614 4.77205C41.4454 4.43843 42.201 4.27794 42.9616 4.3047C45.0196 4.24038 46.9812 5.31764 46.9812 9.8196Z" fill="#2A3798"/>
<path d="M15.178 10.6396V4.62627H18.9725V10.6396C18.9725 11.9098 19.5835 12.7137 20.5804 12.7137C21.5773 12.7137 22.3008 11.9098 22.3008 10.6396V4.62627H26.0953V10.6396C26.1208 11.3684 25.9945 12.0945 25.7243 12.7719C25.4541 13.4492 25.0459 14.0629 24.5257 14.574C24.0056 15.0851 23.3848 15.4824 22.7028 15.7407C22.0208 15.9989 21.2925 16.1125 20.5643 16.0741C19.8455 16.1016 19.1288 15.9795 18.4596 15.7155C17.7904 15.4515 17.1834 15.0513 16.677 14.5404C16.1706 14.0295 15.7759 13.4189 15.5179 12.7474C15.2598 12.0759 15.1441 11.3582 15.178 10.6396Z" fill="#EF2A1E"/>
<path d="M82 4.62627L74.9255 20.1741H70.9059L73.2373 14.9486L68.671 4.62627H72.8996L75.0702 10.8325L77.8357 4.62627H82Z" fill="#2A3798"/>
<path d="M9.84 34.6608V38.4553H0V23.2612H4.01961V34.6608H9.84Z" fill="#EF2A1E"/>
<path d="M37.6879 27.1361V37.3137C37.6879 40.6259 35.1475 43.2467 30.6294 43.2467C28.8097 43.2865 27.0283 42.721 25.5647 41.6388L27.5745 39.2753C28.4338 39.8009 29.4302 40.0584 30.4365 40.0149C32.3981 40.0149 33.813 39.0824 33.8934 37.4424C33.4505 37.9164 32.9117 38.2907 32.3128 38.5402C31.714 38.7897 31.0689 38.9088 30.4204 38.8894C29.6477 38.8798 28.8849 38.7138 28.1781 38.4014C27.4712 38.089 26.835 37.6368 26.3076 37.0719C25.7803 36.507 25.3728 35.8411 25.1097 35.1145C24.8466 34.3879 24.7334 33.6155 24.7769 32.8439C24.7266 32.0684 24.8348 31.2909 25.0948 30.5586C25.3548 29.8262 25.7612 29.1545 26.2892 28.5844C26.8173 28.0142 27.4559 27.5576 28.1661 27.2422C28.8763 26.9269 29.6434 26.7595 30.4204 26.7502C31.0999 26.7355 31.7741 26.8722 32.3942 27.1503C33.0144 27.4284 33.5649 27.8409 34.0059 28.358L34.1667 27.2004L37.6879 27.1361ZM33.8934 32.7635C33.9002 32.4197 33.8367 32.0781 33.7068 31.7597C33.5768 31.4414 33.3832 31.1529 33.1378 30.912C32.8924 30.6711 32.6004 30.4829 32.2797 30.3589C31.9589 30.2349 31.6162 30.1778 31.2726 30.191C30.9305 30.191 30.5918 30.2584 30.2758 30.3893C29.9598 30.5202 29.6726 30.712 29.4308 30.9539C29.1889 31.1958 28.997 31.4829 28.8661 31.7989C28.7352 32.1149 28.6679 32.4536 28.6679 32.7957C28.6679 33.1377 28.7352 33.4764 28.8661 33.7925C28.997 34.1085 29.1889 34.3956 29.4308 34.6375C29.6726 34.8794 29.9598 35.0712 30.2758 35.2021C30.5918 35.333 30.9305 35.4004 31.2726 35.4004C31.6205 35.4093 31.9667 35.3471 32.2897 35.2175C32.6128 35.088 32.906 34.8938 33.1514 34.6469C33.3968 34.4 33.5891 34.1057 33.7167 33.7818C33.8443 33.4579 33.9044 33.1114 33.8934 32.7635Z" fill="#EF2A1E"/>
<path d="M10.8529 32.7957C11.0941 31.2848 11.866 29.9094 13.03 28.9164C14.194 27.9235 15.6739 27.378 17.2039 27.378C18.7339 27.378 20.2138 27.9235 21.3778 28.9164C22.5419 29.9094 23.3138 31.2848 23.5549 32.7957C23.3138 34.3066 22.5419 35.682 21.3778 36.6749C20.2138 37.6679 18.7339 38.2133 17.2039 38.2133C15.6739 38.2133 14.194 37.6679 13.03 36.6749C11.866 35.682 11.0941 34.3066 10.8529 32.7957ZM19.7443 32.7957C19.7443 32.2894 19.594 31.7945 19.3123 31.3737C19.0307 30.953 18.6305 30.6253 18.1624 30.4323C17.6943 30.2393 17.1795 30.1896 16.6832 30.2896C16.1868 30.3895 15.7313 30.6346 15.3745 30.9937C15.0176 31.3529 14.7754 31.8099 14.6786 32.3069C14.5817 32.8038 14.6347 33.3183 14.8306 33.7852C15.0266 34.252 15.3568 34.6502 15.7793 34.9291C16.2018 35.2081 16.6976 35.3553 17.2039 35.3522C17.5454 35.3654 17.886 35.3086 18.2048 35.1855C18.5236 35.0623 18.8139 34.8753 19.0578 34.6359C19.3018 34.3965 19.4942 34.1098 19.6233 33.7933C19.7524 33.4769 19.8155 33.1374 19.8086 32.7957H19.7443Z" fill="#EF2A1E"/>
<path d="M39.5369 32.7957C39.778 31.2848 40.5499 29.9094 41.7139 28.9164C42.878 27.9235 44.3579 27.378 45.8879 27.378C47.4179 27.378 48.8977 27.9235 50.0618 28.9164C51.2258 29.9094 51.9977 31.2848 52.2388 32.7957C51.9977 34.3066 51.2258 35.682 50.0618 36.6749C48.8977 37.6679 47.4179 38.2133 45.8879 38.2133C44.3579 38.2133 42.878 37.6679 41.7139 36.6749C40.5499 35.682 39.778 34.3066 39.5369 32.7957ZM48.4282 32.7957C48.4562 32.444 48.4111 32.0903 48.2957 31.7569C48.1803 31.4236 47.9971 31.1177 47.7578 30.8585C47.5184 30.5993 47.228 30.3925 46.9048 30.2511C46.5816 30.1096 46.2326 30.0366 45.8798 30.0366C45.527 30.0366 45.178 30.1096 44.8548 30.2511C44.5317 30.3925 44.2412 30.5993 44.0019 30.8585C43.7625 31.1177 43.5793 31.4236 43.4639 31.7569C43.3486 32.0903 43.3034 32.444 43.3314 32.7957C43.3034 33.1474 43.3486 33.501 43.4639 33.8344C43.5793 34.1678 43.7625 34.4737 44.0019 34.7329C44.2412 34.992 44.5317 35.1988 44.8548 35.3403C45.178 35.4817 45.527 35.5547 45.8798 35.5547C46.2326 35.5547 46.5816 35.4817 46.9048 35.3403C47.228 35.1988 47.5184 34.992 47.7578 34.7329C47.9971 34.4737 48.1803 34.1678 48.2957 33.8344C48.4111 33.501 48.4562 33.1474 48.4282 32.7957Z" fill="#35A70D"/>
</svg>
